# Blender v2.90.1 OBJ File: 'testam.blend'
# www.blender.org
o low_Cube
v -3.001939 -8.023972 -1.000000
v -3.001939 -10.023972 -1.000000
v -3.001939 -8.023972 1.000000
v -3.001939 -10.023972 1.000000
v -5.001939 -8.023972 -1.000000
v -5.001939 -10.023972 -1.000000
v -5.001939 -8.023972 1.000000
v -5.001939 -10.023972 1.000000
v -3.001939 -6.103469 1.000000
v -5.001939 -6.103469 1.000000
v -3.001939 -6.103469 -1.000000
v -5.001939 -6.103469 -1.000000
v -2.863338 -4.255173 1.000000
v -4.826989 -3.875599 1.000000
v -2.863338 -4.255173 -1.000000
v -4.826989 -3.875599 -1.000000
v -2.277088 -2.502491 1.000000
v -4.102214 -1.684618 1.000000
v -2.277088 -2.502491 -1.000000
v -4.102214 -1.684618 -1.000000
v -1.366659 -1.730343 1.000000
v -2.393734 -0.014208 1.000000
v -1.366660 -1.730343 -1.000000
v -2.393734 -0.014208 -1.000000
v 3.001939 -8.023972 -1.000000
v 3.001939 -10.023972 -1.000000
v 3.001939 -8.023972 1.000000
v 3.001939 -10.023972 1.000000
v 5.001939 -8.023972 -1.000000
v 5.001939 -10.023972 -1.000000
v 5.001939 -8.023972 1.000000
v 5.001939 -10.023972 1.000000
v 3.001939 -6.103469 1.000000
v 5.001939 -6.103469 1.000000
v 3.001939 -6.103469 -1.000000
v 5.001939 -6.103469 -1.000000
v 2.863338 -4.255173 1.000000
v 4.826989 -3.875599 1.000000
v 2.863338 -4.255173 -1.000000
v 4.826989 -3.875599 -1.000000
v 2.277088 -2.502491 1.000000
v 4.102214 -1.684618 1.000000
v 2.277088 -2.502491 -1.000000
v 4.102214 -1.684618 -1.000000
v 1.366659 -1.730343 1.000000
v 2.393734 -0.014208 1.000000
v 1.366660 -1.730343 -1.000000
v 2.393734 -0.014208 -1.000000
v 0.000000 -1.368600 1.000000
v 0.000000 0.631399 1.000000
v 0.000000 -1.368598 -1.000000
v 0.000000 0.631399 -1.000000
vt 0.280843 0.863989
vt 0.285078 0.753091
vt 0.396417 0.756399
vt 0.385171 0.869463
vt 0.175215 0.752268
vt 0.172779 0.860359
vt 0.276408 0.971728
vt 0.168964 0.967749
vt 0.064687 0.857923
vt 0.067123 0.749832
vt 0.174215 0.644018
vt 0.284279 0.641028
vt 0.170260 0.536126
vt 0.278152 0.532171
vt 0.394849 0.636241
vt 0.380371 0.523359
vt 0.499852 0.508748
vt 0.511048 0.631230
vt 0.379227 0.976143
vt 0.497287 0.982278
vt 0.502800 0.879757
vt 0.618417 0.884919
vt 0.617573 0.984066
vt 0.512618 0.759314
vt 0.728840 0.877714
vt 0.738686 0.976233
vt 0.636173 0.768589
vt 0.626177 0.501355
vt 0.635634 0.626411
vt 0.715370 0.769356
vt 0.748012 0.518280
vt 0.717553 0.633467
vt 0.864647 0.566743
vt 0.805353 0.652955
vt 0.798060 0.761529
vt 0.844226 0.851619
vt 0.864647 0.954543
vt 0.279613 0.127399
vt 0.383941 0.121924
vt 0.395187 0.234988
vt 0.283848 0.238297
vt 0.173984 0.239120
vt 0.171548 0.131028
vt 0.167733 0.023639
vt 0.275177 0.019659
vt 0.063457 0.133465
vt 0.065893 0.241556
vt 0.172985 0.347370
vt 0.283049 0.350360
vt 0.169030 0.455262
vt 0.276922 0.459216
vt 0.393619 0.355147
vt 0.509818 0.360157
vt 0.498621 0.482639
vt 0.379141 0.468029
vt 0.377996 0.015244
vt 0.496056 0.009109
vt 0.616342 0.007321
vt 0.617187 0.106469
vt 0.501570 0.111630
vt 0.511388 0.232073
vt 0.737455 0.015154
vt 0.727609 0.113674
vt 0.634942 0.222799
vt 0.634404 0.364976
vt 0.624947 0.490033
vt 0.714140 0.222031
vt 0.716322 0.357920
vt 0.746781 0.473107
vt 0.804123 0.338433
vt 0.863416 0.424645
vt 0.796829 0.229858
vt 0.863416 0.036844
vt 0.842996 0.139768
vn 0.0000 0.0000 1.0000
vn -1.0000 0.0000 0.0000
vn 0.0000 -1.0000 0.0000
vn 1.0000 0.0000 0.0000
vn 0.0000 0.0000 -1.0000
vn -0.9992 0.0392 0.0000
vn 0.9993 -0.0374 0.0000
vn -0.9803 0.1976 0.0000
vn -0.8483 0.5295 0.0000
vn 0.9803 -0.1975 -0.0000
vn -0.4958 0.8684 0.0000
vn 0.8281 -0.5606 -0.0000
vn 0.4627 -0.8865 -0.0000
vn 0.0000 1.0000 0.0000
vn 0.9992 0.0392 0.0000
vn -0.9993 -0.0374 0.0000
vn 0.9803 0.1976 0.0000
vn 0.8483 0.5295 0.0000
vn -0.9803 -0.1975 -0.0000
vn 0.4958 0.8684 0.0000
vn -0.8281 -0.5606 -0.0000
vn -0.4627 -0.8865 -0.0000
s 1
f 7/1/1 3/2/1 9/3/1 10/4/1
f 4/5/1 3/2/1 7/1/1 8/6/1
f 8/6/2 7/1/2 5/7/2 6/8/2
f 6/9/3 2/10/3 4/5/3 8/6/3
f 2/11/4 1/12/4 3/2/4 4/5/4
f 6/13/5 5/14/5 1/12/5 2/11/5
f 11/15/5 12/16/5 16/17/5 15/18/5
f 5/7/2 7/1/2 10/4/6 12/19/6
f 3/2/4 1/12/4 11/15/7 9/3/7
f 1/12/5 5/14/5 12/16/5 11/15/5
f 16/20/8 14/21/8 18/22/9 20/23/9
f 9/3/7 11/15/7 15/18/10 13/24/10
f 12/19/6 10/4/6 14/21/8 16/20/8
f 10/4/1 9/3/1 13/24/1 14/21/1
f 20/23/9 18/22/9 22/25/11 24/26/11
f 14/21/1 13/24/1 17/27/1 18/22/1
f 15/18/5 16/17/5 20/28/5 19/29/5
f 13/24/10 15/18/10 19/29/12 17/27/12
f 18/22/1 17/27/1 21/30/1 22/25/1
f 19/29/5 20/28/5 24/31/5 23/32/5
f 17/27/12 19/29/12 23/32/13 21/30/13
f 23/32/5 24/31/5 52/33/5 51/34/5
f 21/30/13 23/32/13 51/34/3 49/35/3
f 24/26/11 22/25/11 50/36/14 52/37/14
f 22/25/1 21/30/1 49/35/1 50/36/1
f 31/38/1 34/39/1 33/40/1 27/41/1
f 28/42/1 32/43/1 31/38/1 27/41/1
f 32/43/4 30/44/4 29/45/4 31/38/4
f 30/46/3 32/43/3 28/42/3 26/47/3
f 26/48/2 28/42/2 27/41/2 25/49/2
f 30/50/5 26/48/5 25/49/5 29/51/5
f 35/52/5 39/53/5 40/54/5 36/55/5
f 29/45/4 36/56/15 34/39/15 31/38/4
f 27/41/2 33/40/16 35/52/16 25/49/2
f 25/49/5 35/52/5 36/55/5 29/51/5
f 40/57/17 44/58/18 42/59/18 38/60/17
f 33/40/16 37/61/19 39/53/19 35/52/16
f 36/56/15 40/57/17 38/60/17 34/39/15
f 34/39/1 38/60/1 37/61/1 33/40/1
f 44/58/18 48/62/20 46/63/20 42/59/18
f 38/60/1 42/59/1 41/64/1 37/61/1
f 39/53/5 43/65/5 44/66/5 40/54/5
f 37/61/19 41/64/21 43/65/21 39/53/19
f 42/59/1 46/63/1 45/67/1 41/64/1
f 43/65/5 47/68/5 48/69/5 44/66/5
f 41/64/21 45/67/22 47/68/22 43/65/21
f 47/68/5 51/70/5 52/71/5 48/69/5
f 45/67/22 49/72/3 51/70/3 47/68/22
f 48/62/20 52/73/14 50/74/14 46/63/20
f 46/63/1 50/74/1 49/72/1 45/67/1
